HIERARCHY
ROOT Hips
{
  OFFSET 32.3736 103.876 -133.35
  CHANNELS 6 Xposition Yposition Zposition Zrotation Xrotation Yrotation
  JOINT RightUpLeg
  {
    OFFSET -8.9458 -8.66707 0.101652
    CHANNELS 3 Zrotation Xrotation Yrotation
    JOINT RightLeg
    {
      OFFSET 0 -44.4227 1.3727
      CHANNELS 3 Zrotation Xrotation Yrotation
      JOINT RightFoot
      {
        OFFSET 0.253549 -42.0924 -1.46059
        CHANNELS 3 Zrotation Xrotation Yrotation
        JOINT RightToes
        {
          OFFSET 0.04 -4.41509 8.4991
          CHANNELS 3 Zrotation Xrotation Yrotation
          End Site
          {
            OFFSET -0.08 -0.137448 9.77979
          }
        }
      }
    }
  }
  JOINT Spine
  {
    OFFSET 0 11.8905 0
    CHANNELS 3 Zrotation Xrotation Yrotation
    JOINT Spine1
    {
      OFFSET 0 25.6574 0.127663
      CHANNELS 3 Zrotation Xrotation Yrotation
      JOINT HEad
      {
        OFFSET 0 8.73416 0.011341
        CHANNELS 3 Zrotation Xrotation Yrotation
        End Site
        {
          OFFSET -0.29 12.7742 2.51395
        }
      }
      JOINT LeftShoulder1
      {
        OFFSET 8.99 -0.362252 -0.22
        CHANNELS 3 Zrotation Xrotation Yrotation
        JOINT LeftArm
        {
          OFFSET 10.2827 -0.00338 0.322123
          CHANNELS 3 Zrotation Xrotation Yrotation
          JOINT LeftForeArm
          {
            OFFSET 32.7669 0.099144 -1.42434
            CHANNELS 3 Zrotation Xrotation Yrotation
            JOINT LeftHand
            {
              OFFSET 27.5643 0.085362 1.02216
              CHANNELS 3 Zrotation Xrotation Yrotation
              End Site
              {
                OFFSET 16.7443 -0.6 1.50291
              }
            }
          }
        }
      }
      JOINT RightShoulder
      {
        OFFSET -8.99 -0.362252 -0.22
        CHANNELS 3 Zrotation Xrotation Yrotation
        JOINT RightArm
        {
          OFFSET -10.2827 -0.00338 0.322123
          CHANNELS 3 Zrotation Xrotation Yrotation
          JOINT RightForeArm
          {
            OFFSET -32.8971 0.099144 -1.42434
            CHANNELS 3 Zrotation Xrotation Yrotation
            JOINT RightHand
            {
              OFFSET -27.4921 0.085362 1.02216
              CHANNELS 3 Zrotation Xrotation Yrotation
              End Site
              {
                OFFSET -16.6312 -0.6 1.50291
              }
            }
          }
        }
      }
    }
  }
  JOINT LeftUpLeg
  {
    OFFSET 8.9458 -8.66707 0.101652
    CHANNELS 3 Zrotation Xrotation Yrotation
    JOINT LeftLeg
    {
      OFFSET 0 -44.4227 1.3727
      CHANNELS 3 Zrotation Xrotation Yrotation
      JOINT LeftFoot
      {
        OFFSET -0.253549 -42.0924 -1.46059
        CHANNELS 3 Zrotation Xrotation Yrotation
        JOINT LeftToes
        {
          OFFSET -0.04 -4.41509 8.4991
          CHANNELS 3 Zrotation Xrotation Yrotation
          End Site
          {
            OFFSET 0.08 -0.047448 9.77979
          }
        }
      }
    }
  }
}
MOTION
Frames:	17
Frame Time:	0.0166667
22.6096 98.0655 11.0466 0.395145 3.7069 10.5012 6.8909 2.2067 -2.42032 7.83197 28.062 -1.26637 -2.11763 -25.8745 -0.659932 -0.765941 -13.1333 -3.59256 0.891858 3.15717 -1.43592 -5.44111 -6.48387 -0.749354 3.31151 0.167782 1.80757 2.48481e-016 -1.49089e-016 -0 -83.1356 -34.9103 -0.643903 -28.3549 14.1004 -10.5952 0.368473 9.90896 -0.00117927 -11.98 -0.359033 14.074 92.4452 -10.5743 21.4618 20.7378 16.8773 25.3811 -0.369625 9.91382 0.00119887 -16.957 -29.6536 -15.0026 -7.08789 37.4794 20.4113 -0.963937 -6.09028 0.0658477 -1.15035 -5.83904 13.9295 
22.5064 98.2564 11.9078 0.608448 3.84342 10.3602 6.39085 2.0003 -3.99059 7.54423 29.3105 -0.291307 -1.07565 -25.4551 -0.430782 -0.467586 -11.8308 -2.33581 0.828581 3.21871 -1.54308 -5.87264 -6.45887 -0.792062 3.39079 0.551041 2.23119 -9.56651e-016 -7.45443e-017 1.59028e-015 -82.9241 -36.3908 1.10571 -28.2871 14.2206 -11.0401 0.368473 9.90896 -0.00117927 -12.6813 -0.478907 14.5118 93.1038 -10.7874 21.7892 20.3827 16.8178 25.2837 -0.369625 9.91382 0.00119887 -16.6913 -29.1002 -14.4841 -7.18025 37.242 20.1447 -1.1931 -6.56952 0.0525976 -1.11555 -5.84472 13.5113 
22.3978 98.485 12.7649 0.754866 3.93249 10.2551 5.78742 1.57839 -6.01451 7.10374 31.0579 1.0806 0.284647 -24.8978 -0.150114 -0.0561286 -10.0881 -0.436062 0.747184 3.27764 -1.64605 -6.29218 -6.45196 -0.834005 3.61709 1.04738 2.61384 5.24916e-016 1.49089e-016 -3.18055e-015 -82.48 -37.7083 2.93615 -28.1679 14.4052 -11.7489 0.368473 9.90896 -0.00117927 -13.1697 -0.563814 14.7335 93.609 -11.0093 22.0196 20.0788 16.772 25.2458 -0.369625 9.91382 0.00119887 -16.3105 -28.4502 -13.7998 -7.19091 36.8936 19.7287 -1.38731 -6.99138 0.0390669 -1.07226 -5.84983 12.9949 
22.2872 98.7585 13.6269 0.805412 3.97516 10.2777 4.98414 0.927705 -8.61531 6.50587 33.3379 2.81419 1.9331 -24.0252 0.174073 0.543634 -7.81515 2.68475 0.622764 3.29782 -1.73081 -6.63722 -6.52852 -0.872769 4.00497 1.54765 2.80182 -4.34841e-017 -4.96962e-017 1.59028e-015 -81.7125 -38.763 4.91416 -27.9429 14.5513 -12.311 0.368473 9.90896 -0.00117927 -13.3029 -0.584265 14.7779 93.7883 -11.4533 21.9784 19.8219 16.743 25.3083 -0.369625 9.91382 0.00119887 -15.8351 -27.6765 -12.9745 -7.07727 36.4205 19.0133 -1.53545 -7.30167 0.0274307 -1.03083 -6.07246 12.793 
22.1894 99.0512 14.4605 0.810184 3.95411 10.3016 4.00529 0.00993894 -11.1804 5.76028 36.0958 5.0831 3.6656 -22.6694 0.469228 0.962452 -5.81793 5.797 0.453768 3.31465 -1.80366 -6.95645 -6.5686 -0.904252 4.50352 2.00861 2.90914 5.90142e-016 -9.93923e-017 1.59028e-015 -80.8814 -39.6492 6.70108 -27.5798 14.6589 -12.7195 0.368473 9.90896 -0.00117927 -13.0916 -0.54453 14.5145 93.671 -11.88 21.8359 19.6615 16.7476 25.5094 -0.369625 9.91382 0.00119887 -15.3065 -26.8135 -12.0348 -6.87418 35.8789 18.1749 -1.7026 -7.60004 0.0131193 -0.9959 -6.24492 12.5829 
22.1261 99.3421 15.2319 0.811247 3.85455 10.2299 2.83992 -1.2574 -13.2297 4.78539 39.3821 8.50631 5.28434 -20.3494 0.651819 1.31209 -5.41113 8.12276 0.239543 3.36226 -1.87151 -7.28987 -6.47458 -0.925508 5.05094 2.38347 2.96971 1.44119e-015 0 1.59028e-015 -80.2358 -40.5017 7.94146 -27.0215 14.7041 -12.878 0.368473 9.90896 -0.00117927 -12.4201 -0.420662 13.7671 93.1886 -12.085 21.7359 19.6607 16.8012 25.8953 -0.369625 9.91382 0.00119887 -14.7718 -25.8873 -10.9862 -6.54891 35.3282 17.3136 -1.99869 -8.00379 -0.0109865 -0.972348 -6.05534 12.0193 
22.0805 99.6248 15.9519 0.803707 3.66982 10.0674 1.61245 -2.7555 -14.5053 3.48171 42.7773 12.009 6.75932 -17.8297 0.757612 1.42979 -5.0251 9.01615 -0.0468921 3.40828 -1.91859 -7.60017 -6.24491 -0.930567 5.68817 2.57348 3.06954 -2.17421e-016 -9.93923e-017 1.59028e-015 -79.7818 -41.1841 8.71106 -26.2951 14.6595 -12.642 0.368473 9.90896 -0.00117927 -11.5135 -0.26436 12.7126 92.4767 -12.1693 21.578 19.7698 16.9067 26.4843 -0.369625 9.91382 0.00119887 -14.2234 -24.9002 -9.90806 -6.22745 34.7625 16.4847 -2.27892 -8.40582 -0.0351606 -0.956525 -5.84953 11.583 
22.0503 99.8887 16.6175 0.786213 3.3777 9.7792 0.588689 -4.43156 -14.4521 2.35157 46.0491 14.5677 8.139 -15.6003 0.786469 0.889584 -2.88091 6.80125 -0.456912 3.44242 -1.91772 -7.82432 -5.85242 -0.908772 6.44736 2.40386 3.33094 -1.36664e-016 3.47873e-016 -3.18055e-015 -79.6037 -41.5728 8.97711 -25.3819 14.4625 -11.7772 0.368473 9.90896 -0.00117927 -10.6118 -0.125699 11.4158 91.7071 -12.1853 21.3008 19.947 17.0467 27.2367 -0.369625 9.91382 0.00119887 -13.6661 -23.8507 -8.9555 -6.05093 34.1671 15.829 -2.38279 -8.67637 -0.0477179 -0.961744 -5.99201 11.8171 
22.0137 100.125 17.2367 0.78354 3.00858 9.38855 -0.331308 -6.26822 -13.4641 1.30922 49.315 15.5177 9.02428 -14.0024 0.768612 0.439279 -0.876937 3.7829 -0.918461 3.43256 -1.90999 -8.0811 -5.27628 -0.871544 7.29544 2.0559 3.67897 2.05618e-015 -3.23025e-016 -0 -79.7035 -41.7363 8.71041 -24.3341 14.1753 -10.4634 0.368473 9.90896 -0.00117927 -9.56445 0.0111158 10.037 90.7021 -12.0745 20.9339 20.2205 17.2854 28.3758 -0.369625 9.91382 0.00119887 -13.0789 -22.7916 -7.89106 -5.91587 33.6429 15.1753 -2.46602 -9.00073 -0.0614702 -0.977074 -6.12563 12.1848 
21.9377 100.3 17.8079 0.864836 2.56923 8.83518 -1.20005 -8.25004 -11.611 0.875513 52.7565 12.6213 8.86476 -13.8094 0.733508 0.244019 -0.77107 2.1257 -1.39813 3.3201 -1.934 -8.52448 -4.3982 -0.824018 8.24331 1.58604 4.14583 -2.98798e-015 7.45443e-017 7.95139e-016 -80.0736 -41.6929 7.87662 -23.2343 13.8327 -8.80901 0.368473 9.90896 -0.00117927 -8.30549 0.148736 8.83476 89.3481 -11.7515 20.54 20.6022 17.6756 30.2152 -0.369625 9.91382 0.00119887 -12.4529 -21.7971 -6.41011 -5.78411 33.3744 14.3648 -2.63591 -9.64039 -0.0880454 -1.01335 -5.88765 12.3259 
21.8538 100.481 18.3561 0.894281 2.10831 8.33415 -1.92427 -10.2744 -9.27515 1.53805 55.7545 8.00721 8.13078 -14.2143 0.670587 0.032805 -1.43003 0.424308 -1.83136 3.17418 -1.96999 -8.98662 -3.48325 -0.774625 9.18765 1.19417 4.533 -2.39784e-015 0 1.59028e-015 -80.7251 -41.4198 6.52466 -21.9675 13.4488 -6.79339 0.368473 9.90896 -0.00117927 -6.83012 0.274408 7.57879 87.6363 -11.3453 19.9632 21.0254 18.1534 32.4635 -0.369625 9.91382 0.00119887 -11.8066 -20.7725 -4.88432 -5.60253 33.0819 13.4966 -2.87915 -10.237 -0.119624 -1.0309 -5.6628 12.2521 
21.7892 100.764 18.9158 0.718793 1.67694 8.12626 -2.52608 -12.1532 -6.61606 3.02594 57.7519 3.97628 7.0428 -14.6417 0.572791 -0.312723 -2.2347 -2.23626 -2.06817 3.03253 -2.0263 -9.35153 -2.78465 -0.736141 10.032 1.15363 4.61273 -3.85145e-016 1.98785e-016 -0 -81.6879 -40.8909 4.61358 -20.3538 13.0295 -4.26713 0.368473 9.90896 -0.00117927 -4.97601 0.388475 6.10882 85.3531 -10.9501 19.0001 21.4777 18.7024 34.9812 -0.369625 9.91382 0.00119887 -11.0748 -19.5902 -3.5496 -5.26469 32.417 12.5796 -3.31865 -10.3795 -0.156514 -0.957524 -5.8994 11.6696 
21.7236 101.031 19.4557 0.493112 1.2808 8.07148 -3.01873 -14.0588 -4.38196 4.08548 59.1244 0.95522 5.79805 -15.1702 0.460388 -0.747883 -3.33362 -5.13839 -2.33108 2.93086 -2.05723 -9.612 -2.21975 -0.699421 10.7288 1.29812 4.50436 -2.48481e-016 9.93923e-017 -0 -82.7959 -40.0967 2.44716 -18.6824 12.635 -1.72137 0.368473 9.90896 -0.00117927 -3.14925 0.454302 4.47318 83.0082 -10.575 17.8533 21.8295 19.2474 37.6232 -0.369625 9.91382 0.00119887 -10.4317 -18.4706 -2.48574 -4.95012 31.7695 11.7648 -3.64999 -10.4875 -0.185379 -0.901365 -6.04217 11.1324 
21.6326 101.132 19.9406 0.39344 0.964036 8.09119 -3.62173 -16.2349 -3.97651 2.39514 60.3382 1.32605 4.6583 -15.7602 0.350753 -1.2226 -4.83466 -7.88814 -2.9304 2.94677 -1.99847 -9.74004 -1.79345 -0.656883 11.1882 1.54233 4.2719 2.98177e-016 -2.98177e-016 -1.59028e-015 -83.9252 -39.0541 0.303505 -17.2158 12.3675 0.411012 0.368473 9.90896 -0.00117927 -1.8135 0.4216 2.62161 81.1366 -10.2525 16.6383 21.9512 19.7617 40.2386 -0.369625 9.91382 0.00119887 -10.0721 -17.7142 -1.81817 -4.81565 31.6226 11.1584 -3.50345 -11.0419 -0.190691 -0.972036 -5.4124 11.2782 
21.5559 101.253 20.4165 0.192423 0.66029 8.24224 -4.17364 -18.3577 -3.71314 0.616835 60.8846 1.85694 3.65541 -16.1908 0.246574 -1.75366 -6.22877 -10.4413 -3.45167 2.99235 -1.91422 -9.68315 -1.4962 -0.616819 11.462 1.91791 3.85379 -1.05604e-015 0 1.59028e-015 -85.0134 -37.7358 -1.80461 -15.9675 12.1847 2.12916 0.368473 9.90896 -0.00117927 -0.656428 0.330232 0.689795 79.4145 -10.0251 15.4053 21.9278 20.1916 42.6787 -0.369625 9.91382 0.00119887 -9.76042 -16.9641 -1.61007 -4.71335 31.3766 10.8362 -3.19928 -11.4476 -0.179631 -1.05605 -4.82625 11.5673 
21.5389 101.581 20.9303 -0.369365 0.306813 8.61412 -4.24688 -20.0971 -1.86283 1.80019 60.1171 -1.24722 2.95624 -16.1808 0.158184 -2.21213 -6.94389 -12.6837 -3.47235 2.99118 -1.85647 -9.3263 -1.33885 -0.587258 11.5445 2.48472 3.10986 1.42876e-015 3.47873e-016 7.95139e-016 -86.0084 -36.0626 -3.81168 -14.9964 12.0893 3.23999 0.368473 9.90896 -0.00117927 0.578284 0.197735 -1.24549 77.5709 -9.94666 14.2332 21.8288 20.5109 44.7019 -0.369625 9.91382 0.00119887 -9.26473 -15.8748 -2.01346 -4.50083 30.4347 10.9214 -3.004 -11.1157 -0.153901 -1.03401 -5.03038 11.5521 
21.5398 101.957 21.4439 -1.0157 -0.0625276 9.0311 -4.11121 -21.6677 0.257005 3.39661 58.6095 -4.71274 2.42585 -15.871 0.0822699 -2.55357 -7.36377 -14.3642 -3.32646 2.98641 -1.79753 -8.8288 -1.26515 -0.561502 11.5369 3.07306 2.33924 -2.45763e-015 -2.79541e-017 1.59028e-015 -86.7956 -34.2424 -5.63643 -14.4048 12.0485 3.88184 0.368473 9.90896 -0.00117927 1.60772 0.043951 -3.05795 75.9517 -10.0305 13.1464 21.661 20.7578 46.4169 -0.369625 9.91382 0.00119887 -8.77301 -14.6952 -2.8961 -4.34658 29.2645 11.4049 -2.71109 -10.507 -0.114681 -0.987011 -5.54511 11.588 
